<?xml version="1.0" encoding="utf-8"?>
<!-- Generator: Adobe Illustrator 21.0.1, SVG Export Plug-In . SVG Version: 6.00 Build 0)  -->
<svg version="1.1"
	 id="Calque_1" xmlns:cc="http://creativecommons.org/ns#" xmlns:dc="http://purl.org/dc/elements/1.1/" xmlns:inkscape="http://www.inkscape.org/namespaces/inkscape" xmlns:rdf="http://www.w3.org/1999/02/22-rdf-syntax-ns#" xmlns:sodipodi="http://sodipodi.sourceforge.net/DTD/sodipodi-0.dtd" xmlns:svg="http://www.w3.org/2000/svg"
	 xmlns="http://www.w3.org/2000/svg" xmlns:xlink="http://www.w3.org/1999/xlink" x="0px" y="0px" viewBox="0 0 520 520"
	 style="enable-background:new 0 0 520 520;" xml:space="preserve">
<style type="text/css">
	.st0{fill:#FFFFFF;}
	.st1{fill:#EC5D57;}
</style>
<rect x="104.4" y="121.4" class="st0" width="301" height="280.8"/>
<g transform="translate(-91.214475,-152.15558)">
	<path class="st1" d="M353.1,156.2c-2.2,0-4.4,0-6.6,0c-140.7,2.6-253,118.4-251.3,259.1C97,556.1,212,669,352.8,668.2
		c140.8-0.9,254.4-115.2,254.4-256l-0.1-6.3C603.7,267.3,490.8,157.1,353.1,156.2z M430.7,296.7l36,36l-79.5,79.5l79.5,79.5l-36,36
		l-79.5-79.5l-43.5,43.5l-36,36l-36-36l79.5-79.5l-43.5-43.5l-36-36h0l36-36l79.5,79.5L430.7,296.7z M482.7,534.7v0.6h-0.4
		C482.4,535,482.6,534.9,482.7,534.7z"/>
</g>
</svg>
