<?xml version="1.0" encoding="utf-8"?>
<!-- Generator: Adobe Illustrator 21.0.1, SVG Export Plug-In . SVG Version: 6.00 Build 0)  -->
<svg version="1.1"
	 id="Calque_1" xmlns:cc="http://creativecommons.org/ns#" xmlns:dc="http://purl.org/dc/elements/1.1/" xmlns:inkscape="http://www.inkscape.org/namespaces/inkscape" xmlns:rdf="http://www.w3.org/1999/02/22-rdf-syntax-ns#" xmlns:sodipodi="http://sodipodi.sourceforge.net/DTD/sodipodi-0.dtd" xmlns:svg="http://www.w3.org/2000/svg"
	 xmlns="http://www.w3.org/2000/svg" xmlns:xlink="http://www.w3.org/1999/xlink" x="0px" y="0px" viewBox="0 0 520 520"
	 style="enable-background:new 0 0 520 520;" xml:space="preserve">
<style type="text/css">
	.st0{fill:#FFFFFF;}
	.st1{fill:#70C041;}
</style>
<rect x="99" y="78" class="st0" width="323" height="350"/>
<g transform="translate(-91.214475,-152.15558)">
	<path class="st1" d="M353.1,156.2c-2.2,0-4.4,0-6.6,0c-140.7,2.6-253,118.4-251.3,259.1C97,556.1,212,669,352.8,668.2
		c140.8-0.9,254.4-115.2,254.4-256l-0.1-6.3C603.7,267.3,490.8,157.1,353.1,156.2z M462.1,290.2l39,32.7L356.5,495.1l-32.7,39v0
		l-39-32.7l-83.4-70l32.7-39l83.4,70L462.1,290.2L462.1,290.2z M548.6,475.2L548.6,475.2c-0.5,1.8-1.2,3.7-1.8,5.5
		c-0.5,1.4-1,2.9-1.6,4.3v-0.1c0.5-1.4,1.1-2.7,1.6-4.1C547.4,478.8,548,477,548.6,475.2z"/>
</g>
</svg>
